<svg width="80" height="80" viewBox="0 0 80 80" fill="none" xmlns="http://www.w3.org/2000/svg">
<g clip-path="url(#clip0_1108_16072)">
<path d="M22.9919 69.5251L29.3751 76.1176H23.858L15.4341 67.4455H23.336V64.0796H14.734V76.1284H10V62H27.9514V69.5251H22.9919ZM35.0583 76.1176H48.9875V62H31.2616V72.2265L35.0583 76.1176ZM35.9245 64.0796H44.3247V74.0488H38.5822L35.9245 71.326V64.0796ZM65.3372 68.4317H70V76.1176H52.2029V62H70.6882L68.7067 64.0796H56.9606V74.0488H65.3372V68.4317Z" fill="#818181"/>
</g>
<path d="M52 12.4127C52 12.4127 47.9485 12.4127 46.3348 12.4127C44.3433 12.4127 43.9313 13.1746 43.9313 15.0794C43.9313 16.6667 43.9313 19.6825 43.9313 19.6825H52L51.2103 27.7778H43.897V52H33.4592V27.873H28V19.7143H33.4592C33.4592 19.7143 33.4592 18.5397 33.4592 13.2381C33.4592 7.1746 36.9957 4 44.7554 4C46.0258 4 52 4 52 4V12.4127Z" fill="#818181"/>
<defs>
<clipPath id="clip0_1108_16072">
<rect width="60" height="14.1176" fill="white" transform="translate(10 62)"/>
</clipPath>
</defs>
</svg>
