<svg width="80" height="80" viewBox="0 0 80 80" fill="none" xmlns="http://www.w3.org/2000/svg">
<g clip-path="url(#clip0_1108_16088)">
<path d="M49.6992 4H30.3007C22.406 4 16 10.406 16 18.3008V37.6992C16 45.594 22.406 52 30.3007 52H49.6992C57.594 52 64 45.594 64 37.6992V18.3008C64 10.406 57.594 4 49.6992 4ZM59.1729 37.7444C59.1729 42.9774 54.9323 47.218 49.6992 47.218H30.3007C25.0677 47.218 20.8271 42.9774 20.8271 37.7444V18.3459C20.8271 13.1128 25.0677 8.87218 30.3007 8.87218H49.6992C54.9323 8.87218 59.1729 13.1128 59.1729 18.3459V37.7444Z" fill="#818181"/>
<path d="M39.9539 15.5941C33.0967 15.5941 27.5479 21.188 27.5479 28.0001C27.5479 34.8121 33.1418 40.4061 39.9539 40.4061C46.7659 40.4061 52.3599 34.8121 52.3599 28.0001C52.3599 21.188 46.811 15.5941 39.9539 15.5941ZM39.9539 35.6241C35.7584 35.6241 32.3749 32.2407 32.3749 28.0452C32.3749 23.8497 35.7584 20.4662 39.9539 20.4662C44.1494 20.4662 47.5328 23.8497 47.5328 28.0452C47.5779 32.1956 44.1494 35.6241 39.9539 35.6241Z" fill="#818181"/>
<path d="M52.4062 18.6618C54.0505 18.6618 55.3836 17.3287 55.3836 15.6844C55.3836 14.04 54.0505 12.7069 52.4062 12.7069C50.7618 12.7069 49.4287 14.04 49.4287 15.6844C49.4287 17.3287 50.7618 18.6618 52.4062 18.6618Z" fill="#818181"/>
</g>
<g clip-path="url(#clip1_1108_16088)">
<path d="M22.9919 69.5251L29.3751 76.1176H23.858L15.4341 67.4455H23.336V64.0796H14.734V76.1284H10V62H27.9514V69.5251H22.9919ZM35.0583 76.1176H48.9875V62H31.2616V72.2265L35.0583 76.1176ZM35.9245 64.0796H44.3247V74.0488H38.5822L35.9245 71.326V64.0796ZM65.3372 68.4317H70V76.1176H52.2029V62H70.6882L68.7067 64.0796H56.9606V74.0488H65.3372V68.4317Z" fill="#818181"/>
</g>
<defs>
<clipPath id="clip0_1108_16088">
<rect width="48" height="48" fill="white" transform="translate(16 4)"/>
</clipPath>
<clipPath id="clip1_1108_16088">
<rect width="60" height="14.1176" fill="white" transform="translate(10 62)"/>
</clipPath>
</defs>
</svg>
