<svg width="80" height="80" viewBox="0 0 80 80" fill="none" xmlns="http://www.w3.org/2000/svg">
<g clip-path="url(#clip0_1108_16101)">
<path d="M62.9964 16.33C62.725 15.3088 62.1902 14.3768 61.4454 13.6273C60.7007 12.8778 59.7721 12.337 58.7527 12.0591C55 11.05 40 11.05 40 11.05C40 11.05 25 11.05 21.2473 12.0591C20.2279 12.337 19.2993 12.8778 18.5546 13.6273C17.8098 14.3768 17.275 15.3088 17.0036 16.33C16 20.0991 16 27.9591 16 27.9591C16 27.9591 16 35.8191 17.0036 39.5882C17.275 40.6093 17.8098 41.5413 18.5546 42.2909C19.2993 43.0404 20.2279 43.5812 21.2473 43.8591C25 44.8682 40 44.8682 40 44.8682C40 44.8682 55 44.8682 58.7527 43.8591C59.7721 43.5812 60.7007 43.0404 61.4454 42.2909C62.1902 41.5413 62.725 40.6093 62.9964 39.5882C64 35.8191 64 27.9591 64 27.9591C64 27.9591 64 20.0991 62.9964 16.33ZM35.0909 35.0963V20.8218L47.6364 27.9591L35.0909 35.0963Z" fill="#818181"/>
</g>
<g clip-path="url(#clip1_1108_16101)">
<path d="M22.9919 69.5251L29.3751 76.1176H23.858L15.4341 67.4455H23.336V64.0796H14.734V76.1284H10V62H27.9514V69.5251H22.9919ZM35.0583 76.1176H48.9875V62H31.2616V72.2265L35.0583 76.1176ZM35.9245 64.0796H44.3247V74.0488H38.5822L35.9245 71.326V64.0796ZM65.3372 68.4317H70V76.1176H52.2029V62H70.6882L68.7067 64.0796H56.9606V74.0488H65.3372V68.4317Z" fill="#818181"/>
</g>
<defs>
<clipPath id="clip0_1108_16101">
<rect width="48" height="33.8182" fill="white" transform="translate(16 11.05)"/>
</clipPath>
<clipPath id="clip1_1108_16101">
<rect width="60" height="14.1176" fill="white" transform="translate(10 62)"/>
</clipPath>
</defs>
</svg>
